<svg width="120" height="96" viewBox="0 0 120 96" fill="none" xmlns="http://www.w3.org/2000/svg">
<path d="M10.1331 30.72C8.99306 29.58 7.73298 29.04 6.23289 29.04C3.77273 29.04 1.91262 30.18 0.712543 32.52C-0.487532 34.86 -0.187513 37.08 1.73261 39.18C8.81305 45.54 13.3133 50.04 15.2335 52.68C17.6936 56.04 18.8937 60.96 18.8937 67.32C18.8937 75.18 21.8939 81 27.8942 85.02C31.2545 87.66 34.9147 89.64 38.9949 90.96V67.62C38.9949 61.98 37.0148 57.3 33.2346 53.52M86.7579 53.82C83.0377 57.54 80.9976 62.16 80.9976 67.62V91.2C86.7579 89.16 91.5582 85.98 95.5185 81.78C99.4187 77.58 101.399 72.96 101.399 67.32C101.399 60.54 102.539 55.68 104.819 52.68C105.359 51.72 106.379 50.52 107.999 49.02C109.379 47.52 110.819 46.08 112.26 44.76C113.64 43.5 115.02 42.18 116.34 40.86L118.32 39.18C119.46 38.04 120 36.72 120 35.22C120 33.54 119.46 32.04 118.32 30.84C117.18 29.64 115.8 29.04 114 29.04C112.2 29.04 110.999 29.58 109.859 30.72M59.9962 96C64.1365 96 68.1568 95.46 71.997 94.32V72.9C71.997 69.36 70.9169 66.6 68.4568 63.96C65.9966 61.32 63.1764 60 59.9962 60C56.816 60 53.9959 61.2 51.7157 63.66C49.3156 66 47.9955 68.76 47.9955 72.36V94.32C51.8357 95.46 55.856 96 59.9962 96ZM41.9951 27C41.9951 31.98 37.9749 36 32.9946 36C28.0142 36 23.994 31.98 23.994 27C23.994 22.02 28.0142 18 32.9946 18C37.9749 18 41.9951 22.02 41.9951 27ZM95.9985 27C95.9985 31.98 91.9782 36 86.9979 36C82.0176 36 77.9974 31.98 77.9974 27C77.9974 22.02 82.0176 18 86.9979 18C91.9782 18 95.9985 22.02 95.9985 27ZM68.9968 9C68.9968 13.98 64.9766 18 59.9962 18C55.0159 18 50.9957 13.98 50.9957 9C50.9957 4.02 55.0159 0 59.9962 0C64.9766 0 68.9968 4.02 68.9968 9ZM68.9968 42C68.9968 46.98 64.9766 51 59.9962 51C55.0159 51 50.9957 46.98 50.9957 42C50.9957 37.02 55.0159 33 59.9962 33C64.9766 33 68.9968 37.02 68.9968 42Z" fill="black"/>
</svg>
