<svg width="110" height="110" viewBox="0 0 110 110" fill="none" xmlns="http://www.w3.org/2000/svg">
<path d="M10.4958 35.6583V80.2542C10.4958 88.9625 16.6834 92.5375 24.2 88.2292L34.9708 82.0875C37.3083 80.7583 41.2042 80.6208 43.6334 81.8583L67.6958 93.9125C70.125 95.1042 74.0208 95.0125 76.3583 93.6833L96.2042 82.3167C98.725 80.85 100.833 77.275 100.833 74.3417V29.7458C100.833 21.0375 94.6459 17.4625 87.1292 21.7708L76.3583 27.9125C74.0208 29.2417 70.125 29.3792 67.6958 28.1417L43.6334 16.1333C41.2042 14.9417 37.3083 15.0333 34.9708 16.3625L15.125 27.7292C12.5583 29.1958 10.4958 32.7708 10.4958 35.6583Z" fill="black" stroke="white" stroke-width="5" stroke-linecap="round" stroke-linejoin="round"/>
<path d="M39.2334 18.3333V77.9166V18.3333Z" fill="black"/>
<path d="M39.2334 18.3333V77.9166" stroke="white" stroke-width="5" stroke-linecap="round" stroke-linejoin="round"/>
<path d="M72.0959 30.3417V91.6667V30.3417Z" fill="black"/>
<path d="M72.0959 30.3417V91.6667" stroke="white" stroke-width="5" stroke-linecap="round" stroke-linejoin="round"/>
</svg>
