<svg width="100" height="100" viewBox="0 0 100 100" fill="none" xmlns="http://www.w3.org/2000/svg">
<path d="M87.125 46.3333C87.125 66.7083 72.3334 85.7916 52.1251 91.375C50.7501 91.75 49.25 91.75 47.875 91.375C27.6666 85.7916 12.875 66.7083 12.875 46.3333V28.0416C12.875 24.6249 15.4584 20.7499 18.6667 19.4582L41.875 9.95837C47.0833 7.83337 52.9583 7.83337 58.1666 9.95837L81.375 19.4582C84.5417 20.7499 87.1667 24.6249 87.1667 28.0416L87.125 46.3333Z" fill="black" stroke="black" stroke-width="5" stroke-linecap="round" stroke-linejoin="round"/>
<path d="M50.0001 52.0834C54.6025 52.0834 58.3334 48.3524 58.3334 43.75C58.3334 39.1476 54.6025 35.4167 50.0001 35.4167C45.3977 35.4167 41.6667 39.1476 41.6667 43.75C41.6667 48.3524 45.3977 52.0834 50.0001 52.0834Z" fill="white" stroke="black" stroke-width="5" stroke-miterlimit="10" stroke-linecap="round" stroke-linejoin="round"/>
<path d="M50.0002 50.0834V62.5834" stroke="white" stroke-width="5" stroke-miterlimit="10" stroke-linecap="round" stroke-linejoin="round"/>
</svg>
