<svg width="119" height="77" viewBox="0 0 119 77" fill="none" xmlns="http://www.w3.org/2000/svg">
<path d="M94.2083 27.3226C91.4317 27.3226 88.8037 27.869 86.3246 28.7135L71.6975 0H54.5417V7.45161H67.1358L71.4992 15.9961L59.5 42.8716L50.7238 22.1065C52.0625 21.6097 53.2525 20.2684 53.2525 18.629C53.2525 16.5923 51.6163 14.9032 49.5833 14.9032H39.6667C37.5842 14.9032 35.8983 16.5923 35.8983 18.629C35.8983 20.6658 37.5842 22.3548 39.6667 22.3548H42.6912L53.8475 48.4355H49.1867C47.4017 36.5129 37.1875 27.3226 24.7917 27.3226C11.1067 27.3226 0 38.4503 0 52.1613C0 65.8723 11.1067 77 24.7917 77C37.1875 77 47.4017 67.8097 49.1867 55.8871H61.9792L75.8129 24.491L79.73 32.0916C73.4825 36.6123 69.4167 43.9148 69.4167 52.1613C69.4167 65.8723 80.5233 77 94.2083 77C107.893 77 119 65.8723 119 52.1613C119 38.4503 107.893 27.3226 94.2083 27.3226ZM24.7917 69.5484C15.2221 69.5484 7.4375 61.749 7.4375 52.1613C7.4375 42.5735 15.2221 34.7742 24.7917 34.7742C33.0721 34.7742 40.0138 40.6361 41.6996 48.4355H19.8333V55.8871H41.6996C40.0138 63.6865 33.0721 69.5484 24.7917 69.5484ZM94.2083 69.5484C84.6388 69.5484 76.8542 61.749 76.8542 52.1613C76.8542 46.7961 79.3333 42.0768 83.1513 38.8974L92.0762 56.3839L98.6212 52.8071L89.7458 35.42C91.1838 35.0723 92.6712 34.7742 94.2083 34.7742C103.778 34.7742 111.562 42.5735 111.562 52.1613C111.562 61.749 103.778 69.5484 94.2083 69.5484Z" fill="black"/>
</svg>
